<svg width="35" height="36" viewBox="0 0 35 36" fill="none" xmlns="http://www.w3.org/2000/svg">
<path d="M30.8984 18H28.9844C28.834 18 28.7109 18.123 28.7109 18.2734V29.2109H6.28906V6.78906H17.2266C17.377 6.78906 17.5 6.66602 17.5 6.51562V4.60156C17.5 4.45117 17.377 4.32812 17.2266 4.32812H4.92188C4.31689 4.32812 3.82812 4.81689 3.82812 5.42188V30.5781C3.82812 31.1831 4.31689 31.6719 4.92188 31.6719H30.0781C30.6831 31.6719 31.1719 31.1831 31.1719 30.5781V18.2734C31.1719 18.123 31.0488 18 30.8984 18Z" fill="#155FEE"/>
<path d="M12.1645 18.7827L12.0996 22.8467C12.0962 23.1509 12.3423 23.4004 12.6465 23.4004H12.6601L16.6933 23.3013C16.7617 23.2979 16.8301 23.2705 16.8779 23.2227L31.0932 9.03809C31.1992 8.93213 31.1992 8.75781 31.0932 8.65186L26.8447 4.40674C26.79 4.35205 26.7217 4.32812 26.6499 4.32812C26.5781 4.32812 26.5097 4.35547 26.4551 4.40674L12.2431 18.5913C12.1938 18.6429 12.1657 18.7113 12.1645 18.7827ZM14.3349 19.5894L26.6499 7.30176L28.1948 8.84326L15.873 21.1377L14.311 21.1753L14.3349 19.5894Z" fill="#155FEE"/>
</svg>
