<svg width="50" height="30" viewBox="0 0 50 30" fill="none" xmlns="http://www.w3.org/2000/svg">
<g clip-path="url(#clip0_7_119)">
<path d="M28.1511 20.4333C26.6734 18.9825 24.88 17.8247 22.8841 17.0328C20.8882 16.2409 18.733 15.832 16.5541 15.832C14.3752 15.832 12.22 16.2409 10.2241 17.0328C8.22815 17.8247 6.43483 18.9825 4.95706 20.4333C4.72891 20.6619 4.60128 20.9585 4.59839 21.2667V26.2667C4.60322 26.5953 4.7507 26.909 5.00888 27.1398C5.26707 27.3706 5.61519 27.5 5.97789 27.5H27.1303C27.4962 27.5 27.847 27.3683 28.1058 27.1339C28.3645 26.8995 28.5098 26.5815 28.5098 26.25V21.25C28.5025 20.9476 28.3751 20.6576 28.1511 20.4333Z" fill="black" fill-opacity="0.75"/>
<path d="M16.5541 14.1667C20.1096 14.1667 22.9918 11.555 22.9918 8.33333C22.9918 5.11167 20.1096 2.5 16.5541 2.5C12.9987 2.5 10.1165 5.11167 10.1165 8.33333C10.1165 11.555 12.9987 14.1667 16.5541 14.1667Z" fill="black" fill-opacity="0.75"/>
</g>
<path d="M42.9397 21.3126C42.3821 22.247 40.8998 22.2395 40.3535 21.2998L34.9962 12.0804C34.4823 11.196 35.19 10.1335 36.2929 10.1335H47.1524C48.2629 10.1335 48.9699 11.2085 48.4419 12.0935L42.9397 21.3126Z" fill="black" fill-opacity="0.75"/>
<defs>
<clipPath id="clip0_7_119">
<rect width="33.1081" height="30" fill="white"/>
</clipPath>
</defs>
</svg>
