<svg width="30" height="28" viewBox="0 0 30 28" fill="none" xmlns="http://www.w3.org/2000/svg">
<path d="M3.83335 27.125H27.0106C28.6192 27.125 29.9273 25.8169 29.9273 24.2083V3.79167C29.9273 2.18313 28.6192 0.875 27.0106 0.875H3.83335C2.22481 0.875 0.916687 2.18313 0.916687 3.79167V24.2083C0.916687 25.8169 2.22481 27.125 3.83335 27.125ZM3.83335 24.2083V16.9167H9.66669V24.2083H3.83335ZM18.4167 6.70833V14H12.5834V6.70833H18.4167ZM9.66669 6.70833V14H3.83335V6.70833H9.66669ZM12.5834 24.2083V16.9167H18.4167V24.2083H12.5834ZM21.3334 24.2083V16.9167H27.0121V24.2083H21.3334ZM27.0106 14H21.3334V6.70833H27.0106V14Z" fill="#155FEE"/>
</svg>
